<svg xmlns="http://www.w3.org/2000/svg" width="437.904" height="48.384" viewBox="0 0 437.904 48.384">
  <path id="Path_56" data-name="Path 56" d="M-198.984-5.04a1.251,1.251,0,0,0-.144-.528,2.343,2.343,0,0,0-2.112-1.44,1.182,1.182,0,0,0-.576.048c-1.3.336-1.2,1.776-2.112,2.5-1.584,1.44-4.32,1.584-6.48,1.584-2.448,0-3.936-1.776-4.848-3.84a23.441,23.441,0,0,1-.432-4.464A19.256,19.256,0,0,1-214.1-18.96a16.975,16.975,0,0,1,6.528-7.632,2.409,2.409,0,0,1,.576-.1c1.2,0,2.016,1.152,2.64,1.968,1.008,1.3.624,4.32,2.688,4.32a4.231,4.231,0,0,0,1.008-.144,1.5,1.5,0,0,0,.816-1.44,20.829,20.829,0,0,0-.432-2.5,11.943,11.943,0,0,0-2.064-3.648,6.915,6.915,0,0,0-4.08-2.352,9.32,9.32,0,0,0-3.264,1.056,17.475,17.475,0,0,0-4.8,4.032,35.808,35.808,0,0,0-3.072,6.048,22.255,22.255,0,0,0-1.536,8.016,15.754,15.754,0,0,0,1.536,7.536A9.353,9.353,0,0,0-212.712.384a11.174,11.174,0,0,0,2.544.288,17.876,17.876,0,0,0,6.192-1.344c1.632-.912,2.4-1.152,3.456-2.4C-200.136-3.648-198.984-4.128-198.984-5.04Zm16.512-4.56a6.71,6.71,0,0,0-2.064-4.56,5.818,5.818,0,0,0-4.272-2.16,4.653,4.653,0,0,0-1.1.144c-2.832.192-4.9,3.072-6.96,4.7a6.679,6.679,0,0,0-.576,3.024c0,2.976.72,4.464,4.416,6.672a5.2,5.2,0,0,0,2.64.72,6.469,6.469,0,0,0,3.312-.912,14.667,14.667,0,0,0,4.464-6.288l-.048.048A4.438,4.438,0,0,0-182.472-9.6Zm-3.792-.144V-9.7a5.247,5.247,0,0,1-1.824,3.5,4.574,4.574,0,0,1-2.784,1.1,2.82,2.82,0,0,1-2.736-2.976,1.34,1.34,0,0,1,.288-.864c.576-1.728,2.448-2.928,4.08-3.456a2.409,2.409,0,0,1,.576-.1,3.053,3.053,0,0,1,2.3,1.872A5.29,5.29,0,0,1-186.264-9.744Zm26.4,6.96h.048V-3.36c0-1.824-.288-7.2-.96-8.928a10.24,10.24,0,0,0-3.12-3.648,5.444,5.444,0,0,0-1.2-.144c-1.392-.048-3.648,1.776-4.656,2.832-.96-1.2-1.728-2.352-3.168-2.88a1.989,1.989,0,0,0-.96-.288c-1.2.048-2.208,1.824-3.216,2.5a8.4,8.4,0,0,1-.192-1.536,2.061,2.061,0,0,0-2.064-1.488,2.409,2.409,0,0,0-.576.1,1.518,1.518,0,0,0-.912,1.584,6.516,6.516,0,0,0,.192,1.3,28.168,28.168,0,0,1,.528,4.656c-.048,1.344-.192,2.928-.192,4.272a5.293,5.293,0,0,0,.528,2.688A2.963,2.963,0,0,0-177.528-.96a4.917,4.917,0,0,0,1.248-1.392c.816-1.3-.288-6.1-.144-7.872.384-1.2,1.536-1.92,2.5-2.736a5.172,5.172,0,0,1,2.016,4.8,39.8,39.8,0,0,0-.288,4.224,3.443,3.443,0,0,0,.288,1.392,2.738,2.738,0,0,0,2.4,1.68c2.016-1.632,1.1-7.152,1.632-9.456l2.544-1.728a2.539,2.539,0,0,1,1.632,1.824c.336,1.776-.24,7.536,1.728,8.64a1.706,1.706,0,0,0,.48.1A2.072,2.072,0,0,0-159.864-2.784ZM-137.64-3.84h.048v-.576c0-3.744-.816-7.392-3.6-9.6a5.444,5.444,0,0,0-1.2-.144,5.335,5.335,0,0,0-3.7,1.872c-.96-1.2-1.728-2.352-3.168-2.88a1.989,1.989,0,0,0-.96-.288c-1.2,0-2.16,1.3-3.168,1.968-.1-.288-.384-.48-.384-.768a.214.214,0,0,1,0-.24,2.516,2.516,0,0,0-2.064-1.488,2.409,2.409,0,0,0-.576.1c-.768.192-.912.912-.912,1.584a6.516,6.516,0,0,0,.192,1.3,11.563,11.563,0,0,1,.336,2.352c0,1.344-.24,2.832-.24,4.656,0,2.016.48,3.7,2.784,4.08,1.536-1.152,1.392-3.408,1.728-5.184a5.449,5.449,0,0,1,2.832-4.224,2,2,0,0,1,.72,1.824c0,.432-.048.864-.048,1.248a2.858,2.858,0,0,0,.288,1.3,8.5,8.5,0,0,0-.24,1.968A3.443,3.443,0,0,0-148.68-3.6a2.738,2.738,0,0,0,2.4,1.68c2.016-1.632,1.92-4.56,2.688-6.72l.96-1.488a2.807,2.807,0,0,1,1.2,2.544c.1,1.632,0,3.984,1.68,4.944a1.705,1.705,0,0,0,.48.1A2.072,2.072,0,0,0-137.64-3.84Zm15.84-.144c-1.44-1.3-1.536-3.168-1.632-5.04-.048-1.776-.144-3.5-1.3-4.656a1.618,1.618,0,0,0-.816-.24,2.037,2.037,0,0,0-1.584.96,13.938,13.938,0,0,1-.624,4.368A6.126,6.126,0,0,1-130.3-5.28a.289.289,0,0,1-.192.048c-.912,0-1.056-1.1-1.056-1.68l-.144-7.728-.96-1.248a3.144,3.144,0,0,0-1.2-.24,1.509,1.509,0,0,0-1.248.528,41.691,41.691,0,0,0-.24,4.272,21.746,21.746,0,0,0,1.152,7.536c1.056,1.152,2.208,2.928,3.984,2.928a1.83,1.83,0,0,0,.72-.048c1.536-.816,2.3-2.64,3.6-3.6.672.768,1.392,2.16,2.544,2.16a.609.609,0,0,0,.288.048A1.923,1.923,0,0,0-121.8-3.984Zm14.976.768c0-.768-.144-1.632-.144-2.4a5.317,5.317,0,0,1,.1-.912l.048.048c-.528-4.128-1.536-7.44-5.376-8.208h-.288a4.7,4.7,0,0,0-3.792,2.16c-.768-.672-.672-1.68-1.056-2.448a2.112,2.112,0,0,0-1.92-1.152,2.216,2.216,0,0,0-1.44.528.176.176,0,0,1,.048.144c0,2.16,1.008,4.464,1.008,6.912V-8.4a4.358,4.358,0,0,1,.144,1.1c-.048,1.2-.528,2.5-.48,3.648a2.856,2.856,0,0,0,1.3,2.5,1.618,1.618,0,0,0,.816.24,2.037,2.037,0,0,0,1.584-.96c-.048-3.888,1.344-7.584,3.84-8.928,1.68.624,2.256,2.16,2.256,3.84,0,.72-.048,1.44-.048,2.112,0,1.824.288,3.408,2.16,3.7A1.92,1.92,0,0,0-106.824-3.216Zm5.9-18.288c-.1-1.536-1.632-1.728-2.688-2.16a1.877,1.877,0,0,0-1.248,1.824,2.476,2.476,0,0,0,.1.528c.288,1.344,1.632,1.152,2.592,1.488C-101.688-20.3-101.016-20.832-100.92-21.5Zm1.44,19.1h-.048a23.52,23.52,0,0,1-.24-3.7c0-1.008.048-2.016.048-2.976a17.86,17.86,0,0,0-.768-5.616,1.865,1.865,0,0,0-1.536-.768,1.944,1.944,0,0,0-1.872,1.2l.48,12.1,1.2,1.2a1.313,1.313,0,0,0,.672.192C-100.68-.768-99.912-1.728-99.48-2.4Zm19.632-1.872V-4.32c-.24-.816-1.008-.96-1.776-.96a1.633,1.633,0,0,0-.48-.048A7.741,7.741,0,0,1-87.336-2.16c-1.536-.576-2.208-3.456-2.208-5.76,0-1.2.1-2.448.1-3.648,0-.48,0-.96-.048-1.44a5.816,5.816,0,0,1,2.736-.528c.528.048,1.056.048,1.584.048a7.849,7.849,0,0,0,2.16-.24,6.26,6.26,0,0,0,.624-1.728,1.009,1.009,0,0,0-.336-.912,3.412,3.412,0,0,0-1.872-.48c-.96-.048-1.968.24-2.928.24-.624,0-1.248.144-1.824.144.48-4.08.144-9.12,1.3-12.912a2.033,2.033,0,0,0-2.064-1.776,1.65,1.65,0,0,0-.672.048,4.1,4.1,0,0,0-.912,2.016c0,1.2-.72,4.752-.72,9.216a14.342,14.342,0,0,1-.384,3.792c-.336,0-1.92.144-2.16.192a24.555,24.555,0,0,1-2.592.48h-.192a5.133,5.133,0,0,0-.432,1.3,1.2,1.2,0,0,0,.192.672,2.133,2.133,0,0,0,2.016,1.008c.912,0,2.208-.24,2.928-.288a7.188,7.188,0,0,1,.192,2.016c0,.576-.048,1.152-.048,1.776a2.325,2.325,0,0,0,0,.816v.288c0,3.84,1.632,8.88,4.992,8.88C-84.12,1.056-80.856-.96-79.848-4.272Zm15.264-12.912v-.192A2.2,2.2,0,0,0-66.6-19.344a1.491,1.491,0,0,0-1.344.96l-2.5,8.352-.528.864a21.842,21.842,0,0,1-3.12-3.552c-1.056-1.152-1.968-3.6-2.64-5.04A2.2,2.2,0,0,0-78.7-19.248c-.048,0-1.584,0-2.064.768-.192.384.576,1.392.48,1.92A15.178,15.178,0,0,0-76.968-10.7c1.632,2.016,3.6,3.888,5.04,6-.624,1.968-1.152,3.984-1.632,6-.816,3.072-1.488,6.192-2.256,9.264a1.937,1.937,0,0,0,1.056,1.632,2.444,2.444,0,0,0,1.056.24,1.82,1.82,0,0,0,1.872-1.248c.48-5.376,2.16-10.7,3.888-15.984A84.738,84.738,0,0,0-64.584-17.184ZM-27.576-6.576c-.528-.288-1.008-1.488-1.872-1.488a1.4,1.4,0,0,0-.432.1,1.422,1.422,0,0,1-1.44.72c-3.744.48-8.448,1.872-11.664,2.448A9.318,9.318,0,0,1-45-4.7c-.288,0-1.1-.24-1.392-.24a1.672,1.672,0,0,1-.48-1.344c0-.672,0-1.3.048-2.016a72.613,72.613,0,0,0,1.968-15.264c0-1.008-.048-2.016-.144-3.072a2.517,2.517,0,0,0-2.208-1.824h-.144a2.05,2.05,0,0,0-1.1,1.392,10.753,10.753,0,0,1,.48,3.264,56.076,56.076,0,0,1-.72,6.432c-.432,3.6-1.92,7.1-1.92,10.752a11.691,11.691,0,0,0,.336,2.832A5.437,5.437,0,0,0-45.768-1.1h.336c6-.384,10.7-2.448,16.7-3.168C-27.72-4.56-27.912-5.808-27.576-6.576Zm14.016,3.5a2.153,2.153,0,0,0-.048-.528,2.242,2.242,0,0,0-1.68-1.008,1.329,1.329,0,0,0-.432.048,3.355,3.355,0,0,1-2.688,1.2c-1.248,0-3.648-1.248-4.08-2.16a3.1,3.1,0,0,1-.24-2.5c.96-.24,4.7-.432,6.912-1.3a3.952,3.952,0,0,0,2.5-3.408c0-.144-.336-1.392-.336-1.536-.48-1.776-2.3-2.784-3.6-3.552a4.652,4.652,0,0,0-1.1-.144c-1.872,0-3.792.048-5.04,1.68a17.826,17.826,0,0,0-2.5,5.184,25.015,25.015,0,0,0-.24,3.312c0,2.64.672,5.136,3.168,6.576A11.056,11.056,0,0,0-18.216,0,4.372,4.372,0,0,0-16.2-.432C-15.384-1.152-13.56-1.68-13.56-3.072Zm-8.16-8.3a8.1,8.1,0,0,1,1.008-1.92c.528-.72,1.872-.816,2.5-.816s1.488,1.008.816,1.728C-18.024-11.712-21.816-11.232-21.72-11.376ZM2.136-7.824h.048A24.852,24.852,0,0,0,.216-17.9c-1.008-2.256-3.36-2.448-5.52-2.544-1.536.72-3.264,1.392-3.36,3.312.24,1.1.672,1.44,1.2,1.44.96,0,2.3-1.248,3.456-1.248a.609.609,0,0,1,.288.048c1.3.528,2.016,2.832,2.016,4.464a4.608,4.608,0,0,1-.288,1.584,3.3,3.3,0,0,1-.624.1c-.768,0-1.248-.816-2.112-.816a.176.176,0,0,0-.144-.048H-5.16a6.951,6.951,0,0,0-4.992,2.448,5.632,5.632,0,0,0-1.728,4.08,6.455,6.455,0,0,0,.24,1.68c.768,1.008,1.44,2.4,2.688,2.688a4.122,4.122,0,0,0,2.4.72,12.428,12.428,0,0,0,4.8-1.44A3.606,3.606,0,0,0-.5-1.2a2.336,2.336,0,0,0,2.16-1.2A29.224,29.224,0,0,0,2.136-7.824Zm-5.52,2.4a1.1,1.1,0,0,1-.768,1.152,2.344,2.344,0,0,1-1.584.528A5.177,5.177,0,0,1-7.32-4.032c-.384-.192-.672-.48-.672-.72A3.462,3.462,0,0,1-7.32-6.864,4.573,4.573,0,0,1-4.632-7.92c.48,0,.864.24,1.152.912v.336C-3.48-6.24-3.384-5.808-3.384-5.424Zm21.7-8.208v-.432l-.048-.1c-.672-1.344-2.208-1.728-3.744-1.728a5.217,5.217,0,0,1-.864.048c-2.112.48-3.792,1.92-5.568,3.216a1.381,1.381,0,0,1-.48-1.2c0-.336.048-.72.048-1.056a1.48,1.48,0,0,0-.048-.48c-.576-1.1-.912-2.784-2.352-2.784A2.387,2.387,0,0,0,4.488-18a1.277,1.277,0,0,0-.72,1.3v.336A75.934,75.934,0,0,0,5.16-8.112a19.731,19.731,0,0,0,2.688,6.48,1,1,0,0,0,.72.336c.624,0,.96-.528,1.536-.768.336-1.872-.624-4.32-.336-6.288.24-1.632,1.872-3.072,3.648-3.84a3.15,3.15,0,0,1,1.1-.192,4.585,4.585,0,0,1,2.592.912A2.119,2.119,0,0,0,18.312-13.632Zm15.5,10.416c0-.768-.144-1.632-.144-2.4a5.316,5.316,0,0,1,.1-.912l.048.048c-.528-4.128-1.536-7.44-5.376-8.208h-.288a4.7,4.7,0,0,0-3.792,2.16c-.768-.672-.672-1.68-1.056-2.448a2.112,2.112,0,0,0-1.92-1.152,2.216,2.216,0,0,0-1.44.528.176.176,0,0,1,.048.144C19.992-13.3,21-10.992,21-8.544V-8.4a4.358,4.358,0,0,1,.144,1.1c-.048,1.2-.528,2.5-.48,3.648a2.856,2.856,0,0,0,1.3,2.5,1.618,1.618,0,0,0,.816.24,2.037,2.037,0,0,0,1.584-.96C24.312-5.76,25.7-9.456,28.2-10.8c1.68.624,2.256,2.16,2.256,3.84,0,.72-.048,1.44-.048,2.112,0,1.824.288,3.408,2.16,3.7A1.92,1.92,0,0,0,33.816-3.216ZM39.72-21.5c-.1-1.536-1.632-1.728-2.688-2.16a1.877,1.877,0,0,0-1.248,1.824,2.477,2.477,0,0,0,.1.528c.288,1.344,1.632,1.152,2.592,1.488C38.952-20.3,39.624-20.832,39.72-21.5ZM41.16-2.4h-.048a23.521,23.521,0,0,1-.24-3.7c0-1.008.048-2.016.048-2.976a17.86,17.86,0,0,0-.768-5.616,1.865,1.865,0,0,0-1.536-.768,1.944,1.944,0,0,0-1.872,1.2l.48,12.1,1.2,1.2a1.313,1.313,0,0,0,.672.192C39.96-.768,40.728-1.728,41.16-2.4Zm16.416-.816c0-.768-.144-1.632-.144-2.4a5.316,5.316,0,0,1,.1-.912l.048.048c-.528-4.128-1.536-7.44-5.376-8.208h-.288a4.7,4.7,0,0,0-3.792,2.16c-.768-.672-.672-1.68-1.056-2.448a2.112,2.112,0,0,0-1.92-1.152,2.216,2.216,0,0,0-1.44.528.176.176,0,0,1,.048.144c0,2.16,1.008,4.464,1.008,6.912V-8.4A4.358,4.358,0,0,1,44.9-7.3c-.048,1.2-.528,2.5-.48,3.648a2.856,2.856,0,0,0,1.3,2.5,1.618,1.618,0,0,0,.816.24,2.037,2.037,0,0,0,1.584-.96c-.048-3.888,1.344-7.584,3.84-8.928,1.68.624,2.256,2.16,2.256,3.84,0,.72-.048,1.44-.048,2.112,0,1.824.288,3.408,2.16,3.7A1.92,1.92,0,0,0,57.576-3.216ZM71.112-13.3c-.48-1.1-1.488-2.016-1.488-3.264v-.1c-1.056-1.824-2.928-1.776-4.56-2.4-3.744,1.3-5.136,5.28-5.52,8.928A8.136,8.136,0,0,0,59.5-9.072a5.984,5.984,0,0,0,2.256,4.944,3.075,3.075,0,0,0,2.064.864C65.64-3.312,67.464-4.9,69-5.808c.912,1.584,1.3,4.752,1.3,6.816a9.028,9.028,0,0,1-1.1,4.848,3.473,3.473,0,0,1-2.88,1.68c-2.112.048-2.448-2.688-4.56-2.688a3.611,3.611,0,0,0-1.008,2.208,1.329,1.329,0,0,0,.048.432c1.536,1.968,3.36,3.36,5.712,3.36A4.28,4.28,0,0,0,68.04,10.7C72.12,9.7,73.416,5.232,74.088,1.68,73.8-3.6,71.736-8.16,71.112-13.3ZM67.56-11.184l-.048.048C67.08-9.36,65.88-7.248,63.96-6.72a6.642,6.642,0,0,1-.528-2.64,9.122,9.122,0,0,1,2.16-5.664C66.936-14.208,66.984-12.48,67.56-11.184Zm38.976-11.04a6.279,6.279,0,0,0-1.1-2.928c-2.976-4.032-7.44-5.232-11.952-5.232H92.232c-1.728.96-4.8,1.2-4.8,3.648v.288c.336,3.456,1.44,5.136,1.488,7.824a13.542,13.542,0,0,1-.864,4.608c1.008,1.2.816,2.5.816,3.84,0,1.584.048,3.216.048,4.752v.72c0,1.632.048,3.6,1.248,4.9A1.828,1.828,0,0,0,91.08.48a2.613,2.613,0,0,0,1.536-.768l-.24-8.3a1.533,1.533,0,0,0,.144-.672c-.048-.816-.336-1.728-.336-2.544a1.662,1.662,0,0,1,.288-1.1c5.616-1.056,11.664-2.64,13.92-8.5A2.242,2.242,0,0,0,106.536-22.224Zm-3.6-1.2c0,.768-.624,1.536-.864,2.256a13.169,13.169,0,0,1-9.6,4.8.83.83,0,0,1-.288-.576c0-.288.144-.768.144-1.1a35.119,35.119,0,0,0-.72-7.728,3.145,3.145,0,0,1,2.976-1.344,23.417,23.417,0,0,1,4.752.768l2.976,1.776A1.414,1.414,0,0,1,102.936-23.424Zm10.32,21.072a48.191,48.191,0,0,1-.48-7.392c0-3.792.24-8.448.24-12.192a48.422,48.422,0,0,0-.48-7.44,3.551,3.551,0,0,0-2.784-2.016h-.144a1.47,1.47,0,0,0-.672,1.44v.288a104.185,104.185,0,0,1,.528,11.568c0,3.744-.1,8.4-.1,12.144,0,1.3,0,2.592.048,3.888a3.027,3.027,0,0,0,2.352,1.632.36.36,0,0,0,.24.048C112.488-1.056,113.16-1.536,113.256-2.352Zm15.888-5.472h.048a24.852,24.852,0,0,0-1.968-10.08c-1.008-2.256-3.36-2.448-5.52-2.544-1.536.72-3.264,1.392-3.36,3.312.24,1.1.672,1.44,1.2,1.44.96,0,2.3-1.248,3.456-1.248a.609.609,0,0,1,.288.048c1.3.528,2.016,2.832,2.016,4.464a4.608,4.608,0,0,1-.288,1.584,3.3,3.3,0,0,1-.624.1c-.768,0-1.248-.816-2.112-.816a.176.176,0,0,0-.144-.048h-.288a6.951,6.951,0,0,0-4.992,2.448,5.632,5.632,0,0,0-1.728,4.08,6.455,6.455,0,0,0,.24,1.68c.768,1.008,1.44,2.4,2.688,2.688a4.122,4.122,0,0,0,2.4.72,12.428,12.428,0,0,0,4.8-1.44,3.606,3.606,0,0,0,1.248.24,2.336,2.336,0,0,0,2.16-1.2A29.225,29.225,0,0,0,129.144-7.824Zm-5.52,2.4a1.1,1.1,0,0,1-.768,1.152,2.344,2.344,0,0,1-1.584.528,5.177,5.177,0,0,1-1.584-.288c-.384-.192-.672-.48-.672-.72a3.462,3.462,0,0,1,.672-2.112,4.573,4.573,0,0,1,2.688-1.056c.48,0,.864.24,1.152.912v.336C123.528-6.24,123.624-5.808,123.624-5.424Zm24.144,1.152V-4.32c-.24-.816-1.008-.96-1.776-.96a1.633,1.633,0,0,0-.48-.048A7.741,7.741,0,0,1,140.28-2.16c-1.536-.576-2.208-3.456-2.208-5.76,0-1.2.1-2.448.1-3.648,0-.48,0-.96-.048-1.44a5.816,5.816,0,0,1,2.736-.528c.528.048,1.056.048,1.584.048a7.849,7.849,0,0,0,2.16-.24,6.26,6.26,0,0,0,.624-1.728,1.009,1.009,0,0,0-.336-.912,3.412,3.412,0,0,0-1.872-.48c-.96-.048-1.968.24-2.928.24-.624,0-1.248.144-1.824.144.48-4.08.144-9.12,1.3-12.912a2.033,2.033,0,0,0-2.064-1.776,1.65,1.65,0,0,0-.672.048,4.1,4.1,0,0,0-.912,2.016c0,1.2-.72,4.752-.72,9.216a14.343,14.343,0,0,1-.384,3.792c-.336,0-1.92.144-2.16.192a24.555,24.555,0,0,1-2.592.48h-.192a5.133,5.133,0,0,0-.432,1.3,1.2,1.2,0,0,0,.192.672,2.133,2.133,0,0,0,2.016,1.008c.912,0,2.208-.24,2.928-.288a7.188,7.188,0,0,1,.192,2.016c0,.576-.048,1.152-.048,1.776a2.326,2.326,0,0,0,0,.816v.288c0,3.84,1.632,8.88,4.992,8.88C143.5,1.056,146.76-.96,147.768-4.272Zm16.56-25.056a9.03,9.03,0,0,0-.768-3.216c-1.2-1.824-3.024-3.36-5.232-3.408-5.136,2.688-6.048,7.968-6.048,13.536,0,2.976.288,6.048.288,8.88v.576c-1.728,1.3-4.32,1.152-5.616,2.88,0,1.008,1.152,1.1,1.68,1.632a1.329,1.329,0,0,0,.432.048c1.1,0,2.208-.768,3.12-.768a1.334,1.334,0,0,1,1.056.528,65.079,65.079,0,0,0,1.728,7.44l.72.48a2.23,2.23,0,0,0,1.1.288,2.122,2.122,0,0,0,1.776-.912c-.192-3.36-1.488-6.144-1.872-9.264a8.687,8.687,0,0,1,4.752-1.968h.288a2.352,2.352,0,0,0,1.488-2.16c-.576-1.056-1.2-1.44-1.872-1.44-1.344,0-2.736.96-4.608,1.584l-.288.1a37.008,37.008,0,0,1-.624-7.344,19.065,19.065,0,0,1,2.544-10.224,4.992,4.992,0,0,1,.72-.1c2.5,0,.24,4.368,2.592,5.424a.776.776,0,0,0,.48.192c.72,0,1.344-.864,1.968-1.392A4.64,4.64,0,0,0,164.328-29.328Zm17.28,19.584c0-3.408-3.84-7.776-7.008-7.776-3.6,0-5.232,2.688-6.864,5.04A11.744,11.744,0,0,0,166.488-8.5c0,4.224,2.784,7.968,7.056,7.968,4.416,0,6.96-4.464,7.872-7.632A5.963,5.963,0,0,0,181.608-9.744Zm-3.888-.24v.048c0,2.64-2.208,5.424-4.368,5.424-.768,0-3.168-1.44-3.168-3.552,0-2.4,2.64-5.616,4.368-5.616C175.992-13.68,177.72-11.28,177.72-9.984Zm19.536-3.648v-.432l-.048-.1c-.672-1.344-2.208-1.728-3.744-1.728a5.217,5.217,0,0,1-.864.048c-2.112.48-3.792,1.92-5.568,3.216a1.381,1.381,0,0,1-.48-1.2c0-.336.048-.72.048-1.056a1.48,1.48,0,0,0-.048-.48c-.576-1.1-.912-2.784-2.352-2.784a2.387,2.387,0,0,0-.768.144,1.277,1.277,0,0,0-.72,1.3v.336A75.935,75.935,0,0,0,184.1-8.112a19.731,19.731,0,0,0,2.688,6.48,1,1,0,0,0,.72.336c.624,0,.96-.528,1.536-.768.336-1.872-.624-4.32-.336-6.288.24-1.632,1.872-3.072,3.648-3.84a3.15,3.15,0,0,1,1.1-.192,4.585,4.585,0,0,1,2.592.912A2.119,2.119,0,0,0,197.256-13.632Zm21.5,9.792h.048v-.576c0-3.744-.816-7.392-3.6-9.6a5.444,5.444,0,0,0-1.2-.144,5.335,5.335,0,0,0-3.7,1.872c-.96-1.2-1.728-2.352-3.168-2.88a1.989,1.989,0,0,0-.96-.288c-1.2,0-2.16,1.3-3.168,1.968-.1-.288-.384-.48-.384-.768a.214.214,0,0,1,0-.24,2.516,2.516,0,0,0-2.064-1.488,2.409,2.409,0,0,0-.576.1c-.768.192-.912.912-.912,1.584a6.516,6.516,0,0,0,.192,1.3,11.563,11.563,0,0,1,.336,2.352c0,1.344-.24,2.832-.24,4.656,0,2.016.48,3.7,2.784,4.08,1.536-1.152,1.392-3.408,1.728-5.184a5.449,5.449,0,0,1,2.832-4.224,2,2,0,0,1,.72,1.824c0,.432-.048.864-.048,1.248a2.858,2.858,0,0,0,.288,1.3,8.5,8.5,0,0,0-.24,1.968A3.443,3.443,0,0,0,207.72-3.6a2.738,2.738,0,0,0,2.4,1.68c2.016-1.632,1.92-4.56,2.688-6.72l.96-1.488a2.807,2.807,0,0,1,1.2,2.544c.1,1.632,0,3.984,1.68,4.944a1.705,1.705,0,0,0,.48.1A2.072,2.072,0,0,0,218.76-3.84Z" transform="translate(219.096 35.952)" fill="#2d5562"/>
</svg>
