<svg xmlns="http://www.w3.org/2000/svg" xmlns:xlink="http://www.w3.org/1999/xlink" width="168" height="168" viewBox="0 0 168 168">
  <defs>
    <clipPath id="clip-path">
      <rect id="Rectangle_13" data-name="Rectangle 13" width="93.307" height="78.932" fill="none"/>
    </clipPath>
  </defs>
  <g id="Group_15" data-name="Group 15" transform="translate(-146 -587)">
    <circle id="Ellipse_3" data-name="Ellipse 3" cx="84" cy="84" r="84" transform="translate(146 587)" fill="#fff8ca"/>
    <g id="Group_14" data-name="Group 14" transform="translate(176.346 639.034)">
      <line id="Line_7" data-name="Line 7" y2="19.369" transform="translate(55.671 52.204)" fill="none" stroke="#b2b2b2" stroke-width="4"/>
      <line id="Line_8" data-name="Line 8" x2="6.836" y2="12.532" transform="translate(64.5 52.773)" fill="none" stroke="#b2b2b2" stroke-width="4"/>
      <line id="Line_9" data-name="Line 9" x1="6.836" y2="12.532" transform="translate(40.005 52.773)" fill="none" stroke="#b2b2b2" stroke-width="4"/>
      <rect id="Rectangle_11" data-name="Rectangle 11" width="75.273" height="56.531" transform="translate(18.034 0)" fill="#bcbcbc"/>
      <rect id="Rectangle_12" data-name="Rectangle 12" width="75.273" height="3.357" transform="translate(18.034 0)" fill="#1e1e1e"/>
      <g id="Group_13" data-name="Group 13" transform="translate(0 0)">
        <g id="Group_12" data-name="Group 12" clip-path="url(#clip-path)">
          <path id="Path_23" data-name="Path 23" d="M29.207,38.459l.434,42.082a1.767,1.767,0,0,1-3.5.342L22.57,60.178a1.143,1.143,0,0,0-1.395-.929c-1.077.1-2.237-20.337-2.576-26.786a1.766,1.766,0,0,1,1.759-1.857A26.52,26.52,0,0,0,31.986,27.4a105.147,105.147,0,0,0,10.229-6.16,3.942,3.942,0,0,1,2.9-.845c.727.27,1.549.869.589,2.124-1.46,1.91-6.616,9.362-15.57,14.372a1.783,1.783,0,0,0-.925,1.57" transform="translate(-3.104 -3.394)" fill="#1e1e1e"/>
          <path id="Path_24" data-name="Path 24" d="M13.1,40.512l-.434,42.082a1.767,1.767,0,0,0,3.5.342l3.567-20.705a1.143,1.143,0,0,1,1.395-.929c1.077.1,2.237-20.337,2.575-26.786a1.765,1.765,0,0,0-1.758-1.857c-1.755-.011-4.571.166-7.362-.021-1.329-.088-1.48,7.22-1.487,7.874" transform="translate(-2.114 -5.448)" fill="#1e1e1e"/>
          <path id="Path_25" data-name="Path 25" d="M13.911,19.368a7.019,7.019,0,1,0,7.019-7.019,7.019,7.019,0,0,0-7.019,7.019" transform="translate(-2.322 -2.061)" fill="#1e1e1e"/>
          <path id="Path_26" data-name="Path 26" d="M9.729,55.652.466,45.124A3.076,3.076,0,0,1,1.6,40.8l10.789-8.268,1.683,7L6.008,44.756l3.35,5.3A6.918,6.918,0,0,1,10,53.954Z" transform="translate(0 -5.43)" fill="#1e1e1e"/>
          <path id="Path_27" data-name="Path 27" d="M91.746,49.965a4.6,4.6,0,1,1-2.387-6.058A4.6,4.6,0,0,1,91.746,49.965Z" transform="translate(-13.839 -7.264)" fill="none" stroke="#1e1e1e" stroke-width="4"/>
          <line id="Line_10" data-name="Line 10" x2="8.763" y2="8.763" transform="translate(68.566 11.06)" fill="none" stroke="#1e1e1e" stroke-width="4"/>
          <line id="Line_11" data-name="Line 11" x1="8.763" y2="8.763" transform="translate(68.566 11.06)" fill="none" stroke="#1e1e1e" stroke-width="4"/>
          <path id="Path_28" data-name="Path 28" d="M69.073,30.827l7-1.351,1.35,7" transform="translate(-11.528 -4.92)" fill="none" stroke="#1e1e1e" stroke-width="4"/>
          <path id="Path_29" data-name="Path 29" d="M39.672,48.04S56.456,50.7,70.567,30.21" transform="translate(-6.621 -5.042)" fill="none" stroke="#1e1e1e" stroke-width="4"/>
        </g>
      </g>
    </g>
  </g>
</svg>
