<svg xmlns="http://www.w3.org/2000/svg" xmlns:xlink="http://www.w3.org/1999/xlink" width="168" height="168" viewBox="0 0 168 168">
  <defs>
    <clipPath id="clip-path">
      <rect id="Rectangle_14" data-name="Rectangle 14" width="90.523" height="86.951" transform="translate(0 0)" fill="none"/>
    </clipPath>
  </defs>
  <g id="Group_31" data-name="Group 31" transform="translate(-473 -587)">
    <circle id="Ellipse_3" data-name="Ellipse 3" cx="84" cy="84" r="84" transform="translate(473 587)" fill="#eff4ee"/>
    <g id="Group_17" data-name="Group 17" transform="translate(511.238 627.525)">
      <g id="Group_16" data-name="Group 16" clip-path="url(#clip-path)">
        <path id="Path_30" data-name="Path 30" d="M77.2,7.663A5.664,5.664,0,1,0,82.859,2,5.649,5.649,0,0,0,77.2,7.663Z" fill="none" stroke="#1e1e1e" stroke-width="4"/>
        <path id="Path_31" data-name="Path 31" d="M58.634,24.338A5.663,5.663,0,1,0,64.3,18.675,5.644,5.644,0,0,0,58.634,24.338Z" fill="none" stroke="#1e1e1e" stroke-width="4"/>
        <path id="Path_32" data-name="Path 32" d="M44.633,12.225A5.663,5.663,0,1,0,50.3,6.562,5.65,5.65,0,0,0,44.633,12.225Z" fill="none" stroke="#1e1e1e" stroke-width="4"/>
        <line id="Line_12" data-name="Line 12" x1="6.45" y1="4.562" transform="translate(54.072 16.001)" fill="none" stroke="#1e1e1e" stroke-width="4"/>
        <line id="Line_13" data-name="Line 13" y1="9.286" x2="9.205" transform="translate(69.879 11.439)" fill="none" stroke="#1e1e1e" stroke-width="4"/>
        <line id="Line_14" data-name="Line 14" y1="14.316" x2="14.316" transform="translate(32.205 16.001)" fill="none" stroke="#1e1e1e" stroke-width="4"/>
        <path id="Path_33" data-name="Path 33" d="M32.2,86.951V68.073h7.551V86.951" fill="#1e1e1e"/>
        <path id="Path_34" data-name="Path 34" d="M47.307,86.951V41.644h7.551V86.951" fill="#bcbcbc"/>
        <path id="Path_35" data-name="Path 35" d="M62.41,86.951V52.971h7.551v33.98" fill="#1e1e1e"/>
        <path id="Path_36" data-name="Path 36" d="M77.512,86.951v-62.3h7.551v62.3" fill="#bcbcbc"/>
        <path id="Path_37" data-name="Path 37" d="M2,86.951v-15.1H9.551v15.1" fill="#bcbcbc"/>
        <path id="Path_38" data-name="Path 38" d="M17.1,86.951V75.624h7.551V86.951" fill="#1e1e1e"/>
        <path id="Path_39" data-name="Path 39" d="M39.756,45.419A18.878,18.878,0,1,1,20.878,26.541,18.878,18.878,0,0,1,39.756,45.419" fill="none"/>
        <circle id="Ellipse_4" data-name="Ellipse 4" cx="18.878" cy="18.878" r="18.878" transform="translate(2 26.541)" fill="none" stroke="#1e1e1e" stroke-width="4"/>
        <line id="Line_15" data-name="Line 15" y2="3.776" transform="translate(20.24 32.576)" fill="none" stroke="#1e1e1e" stroke-width="4"/>
        <line id="Line_16" data-name="Line 16" y2="3.776" transform="translate(20.24 55.23)" fill="none" stroke="#1e1e1e" stroke-width="4"/>
        <path id="Path_40" data-name="Path 40" d="M21.184,45.791H19.3a4.719,4.719,0,0,1,0-9.439h1.888a4.734,4.734,0,0,1,4.72,4.72" fill="none" stroke="#1e1e1e" stroke-width="4"/>
        <path id="Path_41" data-name="Path 41" d="M19.3,45.791h1.888a4.719,4.719,0,0,1,0,9.439H19.3a4.734,4.734,0,0,1-4.72-4.72" fill="none" stroke="#1e1e1e" stroke-width="4"/>
      </g>
    </g>
  </g>
</svg>
