<svg xmlns="http://www.w3.org/2000/svg" width="13.126" height="13.097" viewBox="0 0 13.126 13.097">
  <g id="arrow-up-short" transform="translate(-8.437 -8.436)">
    <path id="Path_93" data-name="Path 93" d="M15,10.313a.938.938,0,0,1,.938.938v9.375a.938.938,0,0,1-1.875,0V11.25A.938.938,0,0,1,15,10.312Z" fill="#888" fill-rule="evenodd"/>
    <path id="Path_94" data-name="Path 94" d="M14.336,8.711a.938.938,0,0,1,1.327,0l5.625,5.625a.938.938,0,0,1-1.327,1.327L15,10.7l-4.961,4.963a.938.938,0,0,1-1.327-1.327l5.625-5.625Z" fill="#888" fill-rule="evenodd"/>
  </g>
</svg>
