<svg xmlns="http://www.w3.org/2000/svg" width="18" height="23.648" viewBox="0 0 18 23.648">
  <path id="lock" d="M15.784,8.072A2.252,2.252,0,0,1,18,10.288v11.3A2.255,2.255,0,0,1,15.784,23.8H2.27a2.186,2.186,0,0,1-1.609-.66A2.139,2.139,0,0,1,0,21.584v-11.3A2.131,2.131,0,0,1,.66,8.73,2.184,2.184,0,0,1,2.27,8.072H3.379V5.8A5.436,5.436,0,0,1,5.041,1.817,5.436,5.436,0,0,1,9.027.154a5.352,5.352,0,0,1,3.96,1.663A5.48,5.48,0,0,1,14.623,5.8v2.27h1.161ZM9,18.207a2.16,2.16,0,0,0,1.584-.66A2.271,2.271,0,0,0,9,13.666a2.147,2.147,0,0,0-1.584.66,2.294,2.294,0,0,0,0,3.219A2.151,2.151,0,0,0,9,18.206ZM12.51,8.072V5.8a3.352,3.352,0,0,0-1.03-2.455A3.382,3.382,0,0,0,9,2.317a3.292,3.292,0,0,0-2.454,1.03,3.4,3.4,0,0,0-1,2.455v2.27h6.969Z" transform="translate(0 -0.154)" fill="#888"/>
</svg>
