<svg xmlns="http://www.w3.org/2000/svg" width="40" height="40" viewBox="0 0 40 40">
  <g id="Group_6" data-name="Group 6" transform="translate(-655 -1330)">
    <circle id="Ellipse_1" data-name="Ellipse 1" cx="20" cy="20" r="20" transform="translate(655 1330)" fill="#151b26"/>
    <path id="instagram" d="M10,1.667c-2.263,0-2.547.01-3.436.05a6.122,6.122,0,0,0-2.022.388A4.257,4.257,0,0,0,2.1,4.542a6.128,6.128,0,0,0-.388,2.022c-.04.889-.049,1.173-.049,3.436s.009,2.547.05,3.436a6.122,6.122,0,0,0,.388,2.022A4.255,4.255,0,0,0,4.543,17.9a6.128,6.128,0,0,0,2.022.388c.889.04,1.173.05,3.436.05s2.547-.01,3.436-.05a6.122,6.122,0,0,0,2.022-.388A4.255,4.255,0,0,0,17.9,15.458a6.128,6.128,0,0,0,.388-2.022c.04-.889.05-1.173.05-3.436s-.01-2.547-.05-3.436A6.122,6.122,0,0,0,17.9,4.542,4.255,4.255,0,0,0,15.459,2.1a6.128,6.128,0,0,0-2.022-.388c-.89-.039-1.174-.049-3.437-.049m0,1.5c2.225,0,2.488.008,3.367.048a4.59,4.59,0,0,1,1.548.287,2.614,2.614,0,0,1,.958.623,2.584,2.584,0,0,1,.623.958,4.642,4.642,0,0,1,.287,1.548c.04.879.048,1.142.048,3.368s-.008,2.488-.048,3.367a4.616,4.616,0,0,1-.287,1.548A2.756,2.756,0,0,1,14.915,16.5a4.642,4.642,0,0,1-1.548.287c-.878.04-1.142.048-3.368.048s-2.489-.008-3.367-.048A4.616,4.616,0,0,1,5.084,16.5,2.756,2.756,0,0,1,3.5,14.916a4.616,4.616,0,0,1-.287-1.548c-.04-.879-.048-1.142-.048-3.368s.008-2.488.048-3.367A4.59,4.59,0,0,1,3.5,5.085a2.614,2.614,0,0,1,.623-.958A2.584,2.584,0,0,1,5.084,3.5a4.616,4.616,0,0,1,1.548-.287c.879-.04,1.142-.048,3.368-.048m0,9.609A2.778,2.778,0,1,1,12.778,10,2.777,2.777,0,0,1,10,12.778m0-7.057A4.279,4.279,0,1,0,14.279,10,4.279,4.279,0,0,0,10,5.721m5.448-.169a1,1,0,1,1-1-1,1,1,0,0,1,1,1" transform="translate(664.999 1340)" fill="#fff" fill-rule="evenodd"/>
  </g>
</svg>
