<svg xmlns="http://www.w3.org/2000/svg" xmlns:xlink="http://www.w3.org/1999/xlink" width="18" height="18.335" viewBox="0 0 18 18.335">
  <defs>
    <clipPath id="clip-path">
      <rect id="Rectangle_36" data-name="Rectangle 36" width="18" height="18.335" transform="translate(0 0)" fill="none"/>
    </clipPath>
  </defs>
  <g id="Group_89" data-name="Group 89" transform="translate(0 0)">
    <g id="Group_88" data-name="Group 88" clip-path="url(#clip-path)">
      <path id="Path_59" data-name="Path 59" d="M6.872,15.175l-.1-.016a.361.361,0,0,0-.34.27c-.052.165-.09.333-.127.5-.063.279-.24,1.121-.24,1.121a.45.45,0,0,0-.011.215.333.333,0,0,0,.273.264l.06,0a.333.333,0,0,0,.284-.146.562.562,0,0,0,.076-.192c.053-.223.1-.448.146-.672.062-.3.125-.609.2-.91a.348.348,0,0,0-.222-.441" fill="#e23c0a"/>
      <path id="Path_60" data-name="Path 60" d="M9.792,0H9.76a.334.334,0,0,0-.251.283c-.091.485-.174.968-.243,1.453l-.006.116a.342.342,0,0,0,.283.331l.064,0a.336.336,0,0,0,.317-.228A1.01,1.01,0,0,0,9.96,1.8L10,1.559c.054-.348.107-.7.178-1.039a.642.642,0,0,0,.013-.247C10.156.111,10.031,0,9.792,0" fill="#e23c0a"/>
      <path id="Path_61" data-name="Path 61" d="M7.615,1.006C7.582.818,7.549.628,7.529.436A.523.523,0,0,0,7.461.217.359.359,0,0,0,7.123.043H7.105a.347.347,0,0,0-.278.285.663.663,0,0,0,.01.242l.093.473-.011,0,.092.633.022.113a.349.349,0,0,0,.333.259l.046,0a.34.34,0,0,0,.3-.353,2.734,2.734,0,0,0-.036-.349Z" fill="#e23c0a"/>
      <path id="Path_62" data-name="Path 62" d="M2.707,12.457H2.665a.553.553,0,0,0-.164.08c-.125.087-.248.177-.37.268-.22.161-.439.323-.673.463a.334.334,0,0,0-.127.425.351.351,0,0,0,.324.2l.094-.011a.737.737,0,0,0,.233-.119l.872-.626a.6.6,0,0,0,.176-.17.333.333,0,0,0-.007-.376.337.337,0,0,0-.316-.139" fill="#e23c0a"/>
      <path id="Path_63" data-name="Path 63" d="M4.593,14a.355.355,0,0,0-.185.054.628.628,0,0,0-.169.178L3.6,15.15a.559.559,0,0,0-.074.143.344.344,0,0,0,.12.382.338.338,0,0,0,.2.067.342.342,0,0,0,.219-.08.692.692,0,0,0,.117-.133l.662-.946A.358.358,0,0,0,4.93,14.3a.348.348,0,0,0-.337-.3" fill="#e23c0a"/>
      <path id="Path_64" data-name="Path 64" d="M12.665,1.777a.341.341,0,0,0-.3-.122H12.32a.341.341,0,0,0-.242.191l-.066.118c-.138.248-.276.5-.408.746a.345.345,0,0,0,.109.48.349.349,0,0,0,.184.055.362.362,0,0,0,.309-.2c.164-.284.319-.574.491-.9a.329.329,0,0,0-.032-.376" fill="#e23c0a"/>
      <path id="Path_65" data-name="Path 65" d="M10.932,6.546c-.047.005-.069-.029-.1-.05C9.783,5.663,8.714,4.85,7.608,4.087c-.877-.6-1.756-1.207-2.666-1.763a4.927,4.927,0,0,0-.72-.376,1.082,1.082,0,0,0-.4-.092.35.35,0,0,0-.368.449.818.818,0,0,0,.181.349,7.042,7.042,0,0,0,.732.764c.613.563,1.217,1.135,1.782,1.746.244.264.5.516.751.774A.411.411,0,0,1,7,6.09c-.052-.039-.106-.076-.157-.116-.754-.6-1.5-1.209-2.264-1.8A17.545,17.545,0,0,0,2.736,2.886a1.784,1.784,0,0,0-.323-.157A1.5,1.5,0,0,0,2.2,2.665c-.461-.089-.721.207-.581.657a1.585,1.585,0,0,0,.292.5,7.25,7.25,0,0,0,.652.683c.972.945,1.931,1.9,2.86,2.89a3.625,3.625,0,0,1,.394.464c-.057-.046-.117-.09-.172-.138-.618-.538-1.232-1.081-1.855-1.614a16.354,16.354,0,0,0-1.35-1.068,1.72,1.72,0,0,0-.705-.306.4.4,0,0,0-.426.129.447.447,0,0,0-.034.467,1.8,1.8,0,0,0,.3.458c.517.611,1.064,1.2,1.614,1.777.477.5.962,1,1.443,1.5a.455.455,0,0,1,.112.169c-.046-.037-.092-.074-.137-.112-.561-.479-1.12-.96-1.684-1.436a13.331,13.331,0,0,0-1.1-.8,1.418,1.418,0,0,0-.407-.2.331.331,0,0,0-.4.48,3.344,3.344,0,0,0,.573.795c.37.371.759.72,1.15,1.068.966.858,1.886,1.767,2.846,2.633,1.006.908,2.044,1.781,3.12,2.606a8.391,8.391,0,0,0,2.539,1.4,5.482,5.482,0,0,1,1.909,1.2c.261.229.529.448.776.693.144.144.215.137.366-.01.37-.362.7-.759,1.046-1.145.767-.862,1.566-1.694,2.356-2.535.073-.078.146-.157.215-.239.12-.142.12-.189-.006-.321a9.38,9.38,0,0,1-1.278-1.683,12.24,12.24,0,0,1-.752-1.587,16.6,16.6,0,0,0-.869-1.846,6.517,6.517,0,0,0-1.27-1.613,36.71,36.71,0,0,0-3.349-2.8,4.153,4.153,0,0,0-.708-.435A.56.56,0,0,0,9.312,3.3a.317.317,0,0,0-.28.4,2.2,2.2,0,0,0,.242.713,5.663,5.663,0,0,0,.695,1.033c.275.338.565.661.864.977.037.038.09.067.1.131" fill="#e39a56"/>
      <path id="Path_66" data-name="Path 66" d="M6.017,6.753q-.224-.174-.446-.349C4.779,5.779,4.008,5.128,3.2,4.527a15.408,15.408,0,0,0-1.439-.976,2.042,2.042,0,0,0-.377-.174,1,1,0,0,0-.315-.056.427.427,0,0,0-.453.5,1.011,1.011,0,0,0,.142.407A3.062,3.062,0,0,0,1.3,4.9c.64.608,1.259,1.237,1.881,1.863.556.558,1.1,1.133,1.641,1.7.019.021.052.037.04.093-.1-.084-.2-.162-.29-.243-.652-.566-1.3-1.136-1.958-1.7a13.436,13.436,0,0,0-1.146-.9,1.74,1.74,0,0,0-.7-.309c-.391-.063-.6.2-.47.575a1.618,1.618,0,0,0,.3.477c.4.485.834.946,1.266,1.405.595.634,1.2,1.256,1.8,1.884a.519.519,0,0,1,.119.171c-.049-.039-.1-.078-.147-.118C2.989,9.259,2.37,8.673,1.691,8.158c-.271-.206-.551-.4-.83-.595a1.439,1.439,0,0,0-.388-.194.333.333,0,0,0-.382.078.322.322,0,0,0-.038.4,3.39,3.39,0,0,0,.575.793c.369.37.759.72,1.15,1.067.967.858,1.886,1.768,2.846,2.633,1,.9,2.035,1.773,3.106,2.6a8.456,8.456,0,0,0,2.556,1.407,5.378,5.378,0,0,1,1.864,1.164c.271.236.549.464.805.717.152.151.22.145.38-.012.257-.252.495-.521.732-.791.866-.985,1.77-1.935,2.67-2.889.074-.078.146-.157.215-.239.109-.132.108-.187-.009-.309a9.341,9.341,0,0,1-1.3-1.714,11.851,11.851,0,0,1-.7-1.485A19.04,19.04,0,0,0,14.1,8.969a6.6,6.6,0,0,0-1.325-1.712A36.32,36.32,0,0,0,9.409,4.443,4.216,4.216,0,0,0,8.7,4.01a.55.55,0,0,0-.423-.022.28.28,0,0,0-.214.3,1.451,1.451,0,0,0,.12.513,4.069,4.069,0,0,0,.5.888,13.752,13.752,0,0,0,1.185,1.4.535.535,0,0,1,.129.159,1.439,1.439,0,0,1-.129-.081Q7.419,5.219,4.8,3.518c-.375-.244-.75-.489-1.143-.7a2.81,2.81,0,0,0-.534-.239.7.7,0,0,0-.39-.029.327.327,0,0,0-.258.347.716.716,0,0,0,.174.412,6.675,6.675,0,0,0,.728.767c.635.585,1.264,1.177,1.848,1.814.222.242.457.47.686.7l.128.133-.021.03" fill="#f9dc74"/>
      <path id="Path_67" data-name="Path 67" d="M8.008,4.581a1.579,1.579,0,0,0,.261.613,7.348,7.348,0,0,0,.677.885c.559.65,1.157,1.264,1.734,1.9a.22.22,0,0,0,.087.07.143.143,0,0,0,.171-.042.122.122,0,0,0,.006-.158,1.472,1.472,0,0,0-.11-.129c-.559-.6-1.124-1.192-1.66-1.811A6.98,6.98,0,0,1,8.5,5.022a1.309,1.309,0,0,1-.225-.576.425.425,0,0,1,.057-.308.128.128,0,0,0-.029-.2c-.076-.053-.143-.021-.2.038A.387.387,0,0,0,8,4.16a.892.892,0,0,0,.005.421" fill="#e39a56"/>
      <path id="Path_68" data-name="Path 68" d="M5.748,6.707a.293.293,0,0,0,.089.12L7.556,8.474a.439.439,0,0,0,.133.1.125.125,0,0,0,.154-.034.122.122,0,0,0,.016-.156.542.542,0,0,0-.086-.1L6.082,6.667a.517.517,0,0,0-.147-.116.131.131,0,0,0-.142.019.138.138,0,0,0-.045.137" fill="#e39a56"/>
      <path id="Path_69" data-name="Path 69" d="M5.391,11.47a.134.134,0,0,0,.074-.225c-.049-.056-.115-.1-.17-.149-.48-.445-.966-.883-1.421-1.355-.022-.022-.043-.047-.067-.067a.138.138,0,1,0-.206.183.737.737,0,0,0,.085.1c.471.483.967.938,1.466,1.391a.321.321,0,0,0,.239.122" fill="#e39a56"/>
      <path id="Path_70" data-name="Path 70" d="M6.246,9.969a.136.136,0,0,0,.1-.191.381.381,0,0,0-.109-.127L4.87,8.381a.62.62,0,0,0-.118-.093.131.131,0,0,0-.171.03.128.128,0,0,0-.006.159.656.656,0,0,0,.1.111L6.059,9.871c.055.051.108.108.187.1" fill="#e39a56"/>
    </g>
  </g>
</svg>
