<svg xmlns="http://www.w3.org/2000/svg" width="20" height="15" viewBox="0 0 20 15">
  <g id="card-image" transform="translate(0 -2.5)">
    <path id="Path_56" data-name="Path 56" d="M18.125,3.75H1.875a.625.625,0,0,0-.625.625v11.25a.625.625,0,0,0,.625.625h16.25a.625.625,0,0,0,.625-.625V4.375A.625.625,0,0,0,18.125,3.75ZM1.875,2.5A1.875,1.875,0,0,0,0,4.375v11.25A1.875,1.875,0,0,0,1.875,17.5h16.25A1.875,1.875,0,0,0,20,15.625V4.375A1.875,1.875,0,0,0,18.125,2.5Z" fill="#fff" fill-rule="evenodd"/>
    <path id="Path_57" data-name="Path 57" d="M13.31,9.557a.625.625,0,0,1,.721-.116l4.722,2.434V16.25H1.253V15l3.308-2.942a.625.625,0,0,1,.787-.077L8.673,14.2l4.638-4.638Z" fill="#fff"/>
    <path id="Path_58" data-name="Path 58" d="M5.627,8.75A1.875,1.875,0,1,0,3.752,6.875,1.875,1.875,0,0,0,5.627,8.75Z" fill="#fff" fill-rule="evenodd"/>
  </g>
</svg>
