<svg xmlns="http://www.w3.org/2000/svg" width="14" height="16.8" viewBox="0 0 14 16.8">
  <path id="shield" d="M11.9,9.1v-7H7V14.536a15.392,15.392,0,0,0,2.33-1.5Q11.9,11.025,11.9,9.1ZM14,.7V9.1a5.026,5.026,0,0,1-.366,1.865,6.948,6.948,0,0,1-.908,1.641A10.117,10.117,0,0,1,11.435,14a15.036,15.036,0,0,1-1.384,1.126q-.635.449-1.324.848t-.979.541q-.29.142-.465.219a.647.647,0,0,1-.568,0q-.175-.076-.465-.219t-.979-.541q-.689-.4-1.324-.848A15.193,15.193,0,0,1,2.565,14a10.064,10.064,0,0,1-1.291-1.394,6.967,6.967,0,0,1-.908-1.641A5.022,5.022,0,0,1,0,9.1V.7A.673.673,0,0,1,.208.208.673.673,0,0,1,.7,0H13.3a.673.673,0,0,1,.492.208A.673.673,0,0,1,14,.7Z" fill="#888"/>
</svg>
