<svg xmlns="http://www.w3.org/2000/svg" width="16.962" height="16.962" viewBox="0 0 16.962 16.962">
  <path id="pin" d="M10.5,9.375,12,11.988l-2.625-1.5-.012-.07L7.394,8.461l-1.781,1.77q-.492.492-1.113-.117v-2.1L1.477,4.875l-.152.141A.724.724,0,0,1,.78,5.25a.751.751,0,0,1-.551-.229A.751.751,0,0,1,0,4.47a.778.778,0,0,1,.223-.556L3.926.223A.78.78,0,0,1,4.483,0a.759.759,0,0,1,.551.223.733.733,0,0,1,.228.545.758.758,0,0,1-.235.556l-.152.152L8.027,4.5l2.1.012q.609.609.1,1.1L8.461,7.383,10.43,9.352Z" transform="translate(8.477) rotate(45)" fill="#888"/>
</svg>
