<svg xmlns="http://www.w3.org/2000/svg" width="448.2" height="512" viewBox="0 0 448.2 512">
  <path id="cake-candles-solid" d="M86.4,5.5,61.8,47.6A42.9,42.9,0,0,0,56,69.2V72a40,40,0,0,0,80,0V69.2a43.17,43.17,0,0,0-5.8-21.6L105.6,5.5a11.128,11.128,0,0,0-19.2,0Zm128,0L189.8,47.6A42.9,42.9,0,0,0,184,69.2V72a40,40,0,0,0,80,0V69.2a43.17,43.17,0,0,0-5.8-21.6L233.6,5.5a11.128,11.128,0,0,0-19.2,0ZM317.8,47.6A42.9,42.9,0,0,0,312,69.2V72a40,40,0,0,0,80,0V69.2a43.17,43.17,0,0,0-5.8-21.6L361.6,5.5a11.128,11.128,0,0,0-19.2,0ZM128,176a32,32,0,0,0-64,0v48A64.059,64.059,0,0,0,0,288v71c8.3,5.2,18.1,9,28.8,9,13.5,0,27.2-6.1,38.4-13.4a132.565,132.565,0,0,0,13-9.7c1.5-1.3,2.7-2.4,3.5-3.1a5.718,5.718,0,0,0,.8-.8l.1-.1h0a16.09,16.09,0,0,1,23.5.6h0l.1.1.7.7c.7.7,1.7,1.7,3.1,3a100.049,100.049,0,0,0,11.8,9.5c10.2,7.1,23,13.1,36.3,13.1s26.1-6,36.3-13.1a111.424,111.424,0,0,0,11.8-9.5c1.4-1.3,2.4-2.3,3.1-3l.7-.7.1-.1a15.72,15.72,0,0,1,12-5.4,16.067,16.067,0,0,1,12,5.4l.1.1.7.7c.7.7,1.7,1.7,3.1,3a100.049,100.049,0,0,0,11.8,9.5c10.2,7.1,23,13.1,36.3,13.1s26.1-6,36.3-13.1a111.422,111.422,0,0,0,11.8-9.5c1.4-1.3,2.4-2.3,3.1-3l.7-.7.1-.1a15.57,15.57,0,0,1,11.6-5.4,16.139,16.139,0,0,1,11.9,4.8h0l.1.1.8.8c.8.7,1.9,1.8,3.5,3.1a121.382,121.382,0,0,0,13,9.7c11.2,7.3,24.9,13.4,38.4,13.4,10.7,0,20.5-3.9,28.8-9V288a64.059,64.059,0,0,0-64-64V176a32,32,0,0,0-64,0v48H256V176a32,32,0,0,0-64,0v48H128ZM448,394.6a79.406,79.406,0,0,1-28.8,5.4c-22.5,0-42.4-9.9-55.8-18.6-4.1-2.7-7.8-5.4-10.9-7.8a108.419,108.419,0,0,1-9.8,7.5C329.8,390,310.6,400,288,400s-41.8-10-54.6-18.9a114.651,114.651,0,0,1-9.4-7.2c-2.7,2.3-5.9,4.7-9.4,7.2C201.8,390,182.6,400,160,400s-41.8-10-54.6-18.9c-3.7-2.6-7-5.2-9.8-7.5-3.1,2.4-6.8,5.1-10.9,7.8C71.2,390.1,51.3,400,28.8,400A81.575,81.575,0,0,1,0,394.6V480a31.966,31.966,0,0,0,32,32H416a31.966,31.966,0,0,0,32-32Z" fill="silver"/>
</svg>
