<svg xmlns="http://www.w3.org/2000/svg" width="40" height="40" viewBox="0 0 40 40">
  <g id="Group_7" data-name="Group 7" transform="translate(-711 -1330)">
    <circle id="Ellipse_1" data-name="Ellipse 1" cx="20" cy="20" r="20" transform="translate(711 1330)" fill="#151b26"/>
    <path id="social-twitter" d="M17.7,5.224a6.312,6.312,0,0,1-1.815.5,3.168,3.168,0,0,0,1.389-1.748,6.317,6.317,0,0,1-2.006.767A3.162,3.162,0,0,0,9.884,7.622a8.969,8.969,0,0,1-6.512-3.3A3.163,3.163,0,0,0,4.35,8.539a3.152,3.152,0,0,1-1.431-.4c0,.013,0,.026,0,.04a3.163,3.163,0,0,0,2.534,3.1,3.178,3.178,0,0,1-1.427.054A3.162,3.162,0,0,0,6.977,13.53a6.341,6.341,0,0,1-3.924,1.353,6.482,6.482,0,0,1-.754-.044,8.986,8.986,0,0,0,13.833-7.57c0-.137,0-.273-.009-.409A6.406,6.406,0,0,0,17.7,5.224Z" transform="translate(721 1340)" fill="#fff"/>
  </g>
</svg>
