<svg xmlns="http://www.w3.org/2000/svg" width="19.701" height="18.008" viewBox="0 0 19.701 18.008">
  <path id="heart" d="M17.649,3.839a7.761,7.761,0,0,1-1.309,7.034,19.879,19.879,0,0,1-3.252,3.434c-1.07,1-3.464,2.966-4.1,3.021A5.188,5.188,0,0,1,7.355,16.26c-2.5-1.9-5.2-4.215-6.562-6.744C-.352,7.088-.355,4.085,1.428,2.223a5.268,5.268,0,0,1,7.562.5A5.112,5.112,0,0,1,10.742,1.27,5.27,5.27,0,0,1,17.65,3.839Z" transform="translate(0.877 -0.077)" fill="#fff" stroke="#888" stroke-width="1.5"/>
</svg>
