<svg xmlns="http://www.w3.org/2000/svg" width="21.334" height="21.334" viewBox="0 0 21.334 21.334">
  <g id="world-line" transform="translate(-1.333 -1.333)">
    <path id="Path_7" data-name="Path 7" d="M17.693,12a12.92,12.92,0,0,0-.287-2.667h2.4a8.2,8.2,0,0,0-.447-1.067H17.126A13.147,13.147,0,0,0,15.2,4.353a8.2,8.2,0,0,0-1.7-.507,11.887,11.887,0,0,1,2.593,4.393H12.5V3.733h-1V8.246H7.906a11.887,11.887,0,0,1,2.6-4.4,8.187,8.187,0,0,0-1.693.5,13.147,13.147,0,0,0-1.94,3.9H4.627a8.2,8.2,0,0,0-.454,1.087h2.42A12.92,12.92,0,0,0,6.306,12a13.113,13.113,0,0,0,.333,2.913H4.28A8.227,8.227,0,0,0,4.773,16H6.926a12.88,12.88,0,0,0,1.793,3.573,8.187,8.187,0,0,0,1.74.527A11.94,11.94,0,0,1,8,16h3.507v4.227h1V16H16a11.933,11.933,0,0,1-2.467,4.1,8.187,8.187,0,0,0,1.747-.54A12.88,12.88,0,0,0,17.073,16h2.133a8.227,8.227,0,0,0,.493-1.067H17.333A13.113,13.113,0,0,0,17.693,12ZM11.5,14.913H7.673a11.793,11.793,0,0,1-.06-5.6H11.5Zm4.827,0H12.5V9.333h3.887A12.14,12.14,0,0,1,16.667,12a12.08,12.08,0,0,1-.34,2.913Z"/>
    <path id="Path_8" data-name="Path 8" d="M12,1.333A10.667,10.667,0,1,0,22.667,12,10.667,10.667,0,0,0,12,1.333Zm0,20A9.333,9.333,0,1,1,21.333,12,9.333,9.333,0,0,1,12,21.333Z"/>
  </g>
</svg>
