<svg xmlns="http://www.w3.org/2000/svg" width="12.456" height="12.453" viewBox="0 0 12.456 12.453">
  <g id="link-45deg" transform="translate(-2.772 -2.211)">
    <path id="Path_77" data-name="Path 77" d="M5.3,7.36,3.761,8.9a3.375,3.375,0,0,0,4.773,4.773l2.057-2.058a3.375,3.375,0,0,0-.932-5.43L9,6.847a1.126,1.126,0,0,0-.173.224A2.25,2.25,0,0,1,9.8,10.825L7.74,12.881A2.251,2.251,0,1,1,4.556,9.7l.892-.891A4.52,4.52,0,0,1,5.3,7.358Z" fill="#888"/>
    <path id="Path_78" data-name="Path 78" d="M6.426,7.83l.188-.188a2.239,2.239,0,0,1,1.008-.583A2.239,2.239,0,0,1,8.2,6.051l.188-.188a3.38,3.38,0,0,0-1.643.323,3.381,3.381,0,0,0-.324,1.643Z" fill="#888"/>
    <path id="Path_79" data-name="Path 79" d="M7.409,5.256a3.375,3.375,0,0,0,.932,5.432l.872-.873A2.25,2.25,0,0,1,8.2,6.051L10.26,3.994a2.251,2.251,0,1,1,3.184,3.184l-.892.891A4.536,4.536,0,0,1,12.7,9.517L14.24,7.973A3.375,3.375,0,1,0,9.467,3.2Z" fill="#888"/>
    <path id="Path_80" data-name="Path 80" d="M11.25,10.688a3.364,3.364,0,0,0,.324-1.643l-.188.188a2.239,2.239,0,0,1-1.008.583A2.239,2.239,0,0,1,9.8,10.824l-.188.188a3.38,3.38,0,0,0,1.643-.323Z" fill="#888"/>
  </g>
</svg>
