<svg xmlns="http://www.w3.org/2000/svg" width="575.9" height="512" viewBox="0 0 575.9 512">
  <path id="file-signature-solid" d="M64,0A64.059,64.059,0,0,0,0,64V448a64.059,64.059,0,0,0,64,64H320a64.059,64.059,0,0,0,64-64V428.7a60.493,60.493,0,0,1-8.2,2.7l-60.1,15a56.059,56.059,0,0,1-9,1.4,24.517,24.517,0,0,1-2.7.2H240a15.924,15.924,0,0,1-14.3-8.8l-8.8-17.7a9.842,9.842,0,0,0-8.8-5.5,9.732,9.732,0,0,0-8.8,5.5l-8.8,17.7a15.977,15.977,0,0,1-29.6-2.5L144,381l-9.8,32.8a48.033,48.033,0,0,1-46,34.2H80a16,16,0,0,1,0-32h8.2a15.87,15.87,0,0,0,15.3-11.4l14.9-49.5a26.706,26.706,0,0,1,51.2,0l11.6,38.6a41.894,41.894,0,0,1,64.3,13.5l4.4,8.8h8.9a48.635,48.635,0,0,1-1.4-27.8l15-60.1a63.5,63.5,0,0,1,16.8-29.7L384,203.6V160H256a31.966,31.966,0,0,1-32-32V0ZM256,0V128H384ZM549.8,139.7a40.076,40.076,0,0,0-56.6,0l-29.4,29.4,71,71,29.4-29.4a40.076,40.076,0,0,0,0-56.6l-14.4-14.4ZM311.9,321a31.669,31.669,0,0,0-8.4,14.9l-15,60.1a15.986,15.986,0,0,0,19.4,19.4l60.1-15a32.154,32.154,0,0,0,14.9-8.4L512.1,262.7l-71-71Z" fill="silver"/>
</svg>
