<svg xmlns="http://www.w3.org/2000/svg" width="14.444" height="16.666" viewBox="0 0 14.444 16.666">
  <g id="user-solid" transform="translate(-2.778 -1.667)">
    <path id="Path_9" data-name="Path 9" d="M17.006,13.622A9.533,9.533,0,0,0,3,13.622a.839.839,0,0,0-.217.556v3.333a.833.833,0,0,0,.833.822H16.389a.833.833,0,0,0,.833-.833V14.167a.839.839,0,0,0-.217-.544Z" fill="#fff"/>
    <path id="Path_10" data-name="Path 10" d="M13.889,5.556A3.889,3.889,0,1,1,10,1.667a3.889,3.889,0,0,1,3.889,3.889Z" fill="#fff"/>
  </g>
</svg>
