<svg xmlns="http://www.w3.org/2000/svg" width="198.274" height="18.018" viewBox="0 0 198.274 18.018">
  <g id="Group_4" data-name="Group 4" transform="translate(-321 -80.613)">
    <path id="Path_8" data-name="Path 8" d="M382.863,92.011v3.065a3.225,3.225,0,0,1,3.338-2.66c2.06,0,3.311,1.539,3.311,3.911,0,2.06-1.147,3.311-2.894,3.311a2.066,2.066,0,0,1-2.191-1.982,2.219,2.219,0,0,1,1.017-1.9,1.341,1.341,0,0,0-.652-.156c-1.33,0-1.851,1.173-1.93,3.468v3.025c0,.7.182.808.521.808h.782v2.66h-7.588V102.9h.678c.34,0,.522-.1.522-.808V96.837c0-.73-.1-.939-.522-.939h-.782V93.932C381.859,93.724,382.863,92.011,382.863,92.011Z" transform="translate(76.234 -7.31)" fill="#dc4820"/>
    <path id="Path_9" data-name="Path 9" d="M270.931,92.011v3.065a3.225,3.225,0,0,1,3.337-2.66c2.06,0,3.311,1.539,3.311,3.911,0,2.06-1.147,3.311-2.894,3.311a2.066,2.066,0,0,1-2.19-1.982,2.219,2.219,0,0,1,1.017-1.9,1.341,1.341,0,0,0-.652-.156c-1.33,0-1.851,1.173-1.929,3.468v3.025c0,.7.182.808.521.808h.782v2.66h-7.588V102.9h.678c.339,0,.521-.1.521-.808V96.837c0-.73-.1-.939-.521-.939h-.782V93.932C269.927,93.724,270.931,92.011,270.931,92.011Z" transform="translate(137.013 -7.31)" fill="#dc4820"/>
    <path id="Path_10" data-name="Path 10" d="M156.474,92.011v3.065a3.225,3.225,0,0,1,3.338-2.66c2.06,0,3.311,1.539,3.311,3.911,0,2.06-1.147,3.311-2.894,3.311a2.066,2.066,0,0,1-2.191-1.982,2.219,2.219,0,0,1,1.017-1.9,1.341,1.341,0,0,0-.652-.156c-1.33,0-1.851,1.173-1.929,3.468v3.025c0,.7.182.808.521.808h.782v2.66H150.19V102.9h.678c.34,0,.522-.1.522-.808V96.837c0-.73-.1-.939-.522-.939h-.782V93.932C155.47,93.724,156.474,92.011,156.474,92.011Z" transform="translate(199.162 -7.31)" fill="#dc4820"/>
    <path id="Path_11" data-name="Path 11" d="M97.818,95.016c0-.861-.209-1.2-.913-1.2h-1.59v3.337c0,.73.156.913.626.913h1.121v2.66H88.274v-2.66h.913c.5,0,.626-.182.626-.913V86.685c0-.73-.13-.913-.626-.913h-.913v-2.66h14.358v4.471h-2.556l-.443-.743c-.469-1.017-.616-1.069-1.971-1.069H95.315v5.41H96.9c.7,0,.913-.261.913-1.121v-.626h2.347V95.64H97.818Z" transform="translate(232.726 -2.479)" fill="#dc4820"/>
    <path id="Path_12" data-name="Path 12" d="M121.677,95.557a3.042,3.042,0,0,1,.182.991,2.217,2.217,0,0,1-2.4,2.138c-1.617,0-2.53-.808-2.53-2.295,0-2.321,2.347-3.494,6.545-3.494,4.589,0,6.284,1.2,6.284,4.511v5.163c0,.6.13.808.495.808h.679v2.66h-5.059a4.078,4.078,0,0,1-1.148-1.956,4.735,4.735,0,0,1-4.25,2.321c-2.477,0-3.938-1.46-3.938-3.442,0-3.6,4.433-4.172,8.136-4.824v-.7c0-1.356-.548-1.982-1.982-1.982a5.083,5.083,0,0,0-1.014.1Zm3,5.424v-.939c-1.8.287-3.39.7-3.39,2.19a1.246,1.246,0,0,0,1.3,1.3c1.385,0,2.089-1.039,2.089-2.552Z" transform="translate(217.378 -7.791)" fill="#dc4820"/>
    <path id="Path_13" data-name="Path 13" d="M179.93,102.9h.678c.339,0,.521-.1.521-.808V96.837c0-.73-.131-.939-.521-.939h-.678V93.932s4.586-.53,6.206-1.921v2.752a4.164,4.164,0,0,1,4.042-2.347c2.008,0,3.259.861,3.729,2.608.652-1.7,2.034-2.608,4.277-2.608,2.764,0,4.277,1.539,4.277,5.111v4.563c0,.7.182.808.521.808h.678v2.66h-7.275V102.9h.469c.339,0,.521-.1.521-.808V97.814c0-1.486-.443-2.138-1.434-2.138-1.174,0-1.591.808-1.591,2.634v3.781c0,.7.183.808.522.808h.573v2.66h-7.17V102.9h.469c.313,0,.521-.1.521-.808V97.709c0-1.382-.5-2.034-1.46-2.034-1.148,0-1.591.808-1.591,2.634v3.781c0,.7.182.808.522.808h.547v2.66H179.93Z" transform="translate(182.957 -7.31)" fill="#dc4820"/>
    <path id="Path_14" data-name="Path 14" d="M238.067,100.589a2.632,2.632,0,0,0,2.947,2.79,2.968,2.968,0,0,0,2.894-1.825l2.373,1.7c-.938,1.8-2.79,3.155-6.284,3.155-4.641,0-7.145-2.764-7.145-6.78,0-4.042,2.737-6.728,7.015-6.728,4.432,0,6.519,2.582,6.519,7.171v.521Zm-.078-2.19h3.572c-.052-2.112-.548-2.868-1.669-2.868-1.225,0-1.8.808-1.9,2.869Z" transform="translate(154.221 -7.791)" fill="#dc4820"/>
    <path id="Path_15" data-name="Path 15" d="M295.3,102.1h3.311v1.747a6.922,6.922,0,0,0,1.747.182c1.043,0,1.7-.365,1.7-1.148,0-.887-.965-1.1-2.582-1.434-2.008-.469-4.355-1.225-4.355-4.042,0-2.79,2.112-4.511,5.92-4.511a12.415,12.415,0,0,1,5.032,1.017V97.1h-3.155V95.5a5.337,5.337,0,0,0-1.565-.235c-1.017,0-1.617.417-1.617,1.1,0,.913,1.017,1.017,2.5,1.356,1.982.469,4.433,1.226,4.433,4.12,0,2.868-2.086,4.563-5.972,4.563a15.675,15.675,0,0,1-5.4-1.017Z" transform="translate(120.409 -7.791)" fill="#dc4820"/>
    <path id="Path_16" data-name="Path 16" d="M326.084,88.286a2.439,2.439,0,0,1-.661.061,2.376,2.376,0,0,1-2.585-2.5,2.763,2.763,0,0,1,3.006-2.736,3.768,3.768,0,0,1,3.727,4.028,4.655,4.655,0,0,1-4.99,4.93,7.006,7.006,0,0,1-2.044-.3V89.1a4.889,4.889,0,0,0,1.593.271C325.242,89.369,325.874,89.068,326.084,88.286Z" transform="translate(105.522 -2.48)" fill="#dc4820"/>
    <path id="Path_17" data-name="Path 17" d="M421.327,92.7v9.636c0,.73.13.938.521.938h.782v2.66h-3.155a15.353,15.353,0,0,0-3.233.313v-2.034a4.389,4.389,0,0,1-4.094,2.086c-2.817,0-4.2-1.565-4.2-5.059V96.621c0-.7-.182-.808-.521-.808h-.678v-2.66h6.284v8c0,1.512.469,1.982,1.487,1.982,1.174,0,1.721-.808,1.721-2.66V97.447c0-.7-.182-.808-.521-.808h-.965V94.687C418.024,94.646,420.773,93.483,421.327,92.7Z" transform="translate(59.795 -7.682)" fill="#dc4820"/>
    <path id="Path_18" data-name="Path 18" d="M452.277,96a2.7,2.7,0,0,0-1.8-.5c-1.8,0-2.816,1.1-2.816,3.651v.6c0,2.477.991,3.546,2.712,3.546a2.746,2.746,0,0,0,2.737-1.929l2.608,1.487c-.834,2.06-2.556,3.546-6,3.546-4.538,0-7.223-2.477-7.223-6.806,0-4.172,2.711-6.7,7.2-6.7,3.911,0,6.049,1.59,6.049,4.407,0,1.8-1.016,3.077-2.764,3.077a2.237,2.237,0,0,1-2.477-2.19A2.115,2.115,0,0,1,452.277,96Z" transform="translate(40.383 -7.791)" fill="#dc4820"/>
    <path id="Path_19" data-name="Path 19" d="M473.209,98.593h.678c.34,0,.522-.1.522-.808v-8.9c0-.73-.13-.939-.522-.939h-.782V85.982s4.678-.521,6.388-1.9v10.5l2.973-2.738a.4.4,0,0,0-.261-.7h-1.043V88.48h7.353v2.66h-.965a1.576,1.576,0,0,0-1.069.5l-1.7,1.408,2.947,4.98c.287.5.574.574.834.574h.47v2.66H481.58V98.6h.5c.312,0,.339-.287.182-.652l-1.173-2.034L479.5,97.35v.444c-.026.7.183.808.521.808h.548v2.66h-7.353Z" transform="translate(23.764 -3.005)" fill="#dc4820"/>
    <path id="Path_20" data-name="Path 20" d="M510.823,96.359V94.147h-.854V93.7h2.286v.451H511.4v2.212Z" transform="translate(3.747 -8.225)" fill="#dc4820"/>
    <path id="Path_21" data-name="Path 21" d="M516.052,96.359V93.7h.869l.522,1.817.516-1.817h.871v2.663h-.54v-2.1l-.571,2.1h-.559l-.569-2.1v2.1Z" transform="translate(0.444 -8.225)" fill="#dc4820"/>
    <path id="Path_22" data-name="Path 22" d="M356.589,85.674c1.538,0,2.112.208,2.3,1.252l.207,1.213c.981-.048,1.809-.131,2.505-.234V83.066H345.611v5.085h2.5l.208-1.225c.182-1.043.731-1.252,2.269-1.252h.261V97.1c0,.756-.156.938-.626.938H349.1v2.66h8.788v-2.66h-1.121c-.5,0-.626-.182-.626-.938V85.674Z" transform="translate(92.993 -2.453)" fill="#dc4820"/>
  </g>
</svg>
